<svg class="css-1j8o68f" width="350.69" height="60.292" viewBox="0 0 374.89 67.691" xmlns="http://www.w3.org/2000/svg"><path d="M71.838 59.995a2.78 2.78 0 0 1-2.123-4.571l15.974-18.926-15.973-18.926a2.78 2.78 0 0 1 4.248-3.586l17.487 20.719a2.779 2.779 0 0 1 0 3.585L73.963 59.008a2.771 2.771 0 0 1-2.125.987zm-51.57 0a2.773 2.773 0 0 1-2.124-.986L.656 38.29a2.779 2.779 0 0 1 0-3.585l17.488-20.719a2.78 2.78 0 0 1 4.248 3.585L6.416 36.5 22.39 55.424a2.78 2.78 0 0 1-2.122 4.571zm12.813 0a2.779 2.779 0 0 1-2.352-4.253l25.937-41.436a2.78 2.78 0 1 1 4.711 2.948L35.44 58.69a2.778 2.778 0 0 1-2.359 1.305z" xmlns="http://www.w3.org/2000/svg" fill="#fff"/><path d="m129.042 37.285-9.395-5.38c4.697-5.296 11.018-7.773 17.594-7.773 12.64 0 17.765 6.918 17.765 13.41v29.466h-12.64v-2.99c-1.965 2.05-5.466 3.588-9.395 3.588-11.53 0-15.972-5.125-15.972-12.982 0-8.883 7.174-14.862 18.79-14.862h6.577c0-3.16-2.392-5.21-5.979-5.21-3.673 0-5.466.683-7.345 2.733zm13.324 15.801v-3.758h-7.43c-3.332 0-5.809 2.306-5.296 5.552.341 2.306 2.391 3.245 5.295 3.245 5.552 0 7.43-3.16 7.43-5.039zm43.11-28.868c12.385 0 20.584 9.31 20.584 21.78s-9.053 21.693-21.438 21.693c-2.733 0-7.345-1.537-8.711-3.502v2.819H163.27V5h12.64v22.805c1.453-2.135 6.919-3.587 9.566-3.587zm-1.708 33.907c5.296 0 9.652-5.466 9.652-12.128 0-6.747-4.356-12.213-9.652-12.213-5.808 0-9.566 6.576-9.566 12.213s3.844 12.128 9.566 12.128zm41.574-33.31v42.193H212.7V24.815h12.64zm.341-12.128c0 3.587-2.904 6.406-6.747 6.406-3.673 0-6.662-2.819-6.662-6.406 0-3.502 2.99-6.235 6.662-6.235 3.843 0 6.747 2.733 6.747 6.235zm35.168 12.726-1.708 9.48c-3.16-1.366-3.758-1.11-5.21-1.11-5.125 0-8.114 2.734-8.114 9.481v23.744h-12.641V24.815h12.64v3.759c1.623-2.904 6.065-4.356 8.883-4.356 2.648 0 4.185.085 6.15 1.195zm53.765 41.595L300.951 49.67c-.342.341-.94.768-1.452 1.196v16.142h-12.726V5h12.726v30.406l12.128-10.59h18.876L310.09 41.896c6.235 7.687 14.434 17.68 20.413 25.111h-15.887zm60.279-24.086v24.086h-12.641V42.922c0-6.49-1.708-9.224-6.662-9.224-5.125 0-8.114 2.733-8.114 9.224v24.086h-12.64V5h12.64v24.513c1.623-4.698 7.772-5.295 11.445-5.295 11.786 0 15.972 5.722 15.972 18.704z" fill="#fff"/></svg>